<svg xmlns="http://www.w3.org/2000/svg" version="1.1" xmlns:xlink="http://www.w3.org/1999/xlink" xmlns:svgjs="http://svgjs.com/svgjs" width="1580" height="1000" preserveAspectRatio="none" viewBox="0 0 1580 1000"><g mask="url(&quot;#SvgjsMask13352&quot;)" fill="none"><rect width="1580" height="1000" x="0" y="0" fill="url(#SvgjsLinearGradient13353)"></rect><use xlink:href="#SvgjsG13358" transform="translate(0, 0)" fill="rgba(142, 157, 241, 1)"></use><use xlink:href="#SvgjsG13358" transform="translate(1152, 0)" fill="rgba(142, 157, 241, 1)"></use></g><defs><mask id="SvgjsMask13352"><rect width="1580" height="1000" fill="#ffffff"></rect></mask><linearGradient x1="9.18%" y1="114.5%" x2="90.82%" y2="-14.5%" gradientUnits="userSpaceOnUse" id="SvgjsLinearGradient13353"><stop stop-color="rgba(171, 204, 247, 1)" offset="0"></stop><stop stop-color="rgba(177, 206, 244, 1)" offset="0.26"></stop><stop stop-color="rgba(201, 218, 240, 1)" offset="0.36"></stop><stop stop-color="rgba(210, 226, 246, 0.97)" offset="0.64"></stop></linearGradient><g id="SvgjsG13354"><path d="M13.35 11.2L5.88 14.36 1.74 4.61l7.47-3.17 4.14 9.76z m-3.13 3a0.46 0.46 0 1 1-0.36-0.84 0.46 0.46 0 0 1 0.36 0.84zM4.38 2.24l1.29-0.54c0.18-0.08 0.32 0.25 0.14 0.32l-1.29 0.55c-0.18 0.08-0.32-0.25-0.14-0.33zM8.25-0.35L1.12 2.68C0.81 2.8 0.7 3.23 0.87 3.63L5.98 15.67c0.17 0.39 0.55 0.61 0.86 0.49l7.13-3.03c0.31-0.13 0.42-0.56 0.26-0.95L9.11 0.13c-0.17-0.4-0.56-0.61-0.86-0.48z" fill-rule="evenodd"></path></g><g id="SvgjsG13355"><path d="M17.16 9.69l0 0s-3.96-1.6-3.97-1.6a0.6 0.6 0 0 0-0.79 0.34L11.67 10.25c-0.29 0.71-1.12 0.54-2.78 0.06-1.1-0.32-2.42-0.81-3.65-1.47-0.87-0.46-1.69-0.99-1.39-1.74 0 0 0.74-1.83 0.74-1.83l0 0c0.13-0.33-0.04-0.67-0.34-0.8l0 0L0.17 2.83c-0.31-0.13-0.66 0.03-0.79 0.33L-1.36 5C-1.61 5.89-1.45 9.56 5.82 12.6c7.66 3.2 10.6 0.57 10.93-0.29 0 0 0.75-1.82 0.75-1.82l0-0.01c0.13-0.33-0.04-0.67-0.34-0.79z"></path></g><g id="SvgjsG13356"><path d="M14.46 10.35L10.24 0.4 7.41 1.6 6.72-0.07C6.71-0.06 2.4 4.57 2.4 4.57 1.72 5.34 1.66 6.07 2.01 6.89L5.41 14.91c0.54 1.28 2.02 1.89 3.2 1.39l7.12-3.03L15.11 11.8c-0.92 0.26-1.45-0.98-0.65-1.45z m-6.57 4.34c-0.78 0.33-1.24-0.77-0.47-1.1l4.97-2.11c-0.24 0.4 0.04 1 0.51 1.08L7.89 14.69z m4.41-5.01L7.95 11.52l2.52-2.72L8.09 3.21l1.24-0.53 2.97 7 0 0z" fill-rule="evenodd"></path></g><g id="SvgjsG13357"><path d="M5.25 7.58l0.87-0.37a0.48 0.48 0 0 0 0.26-0.64L5.27 3.96a0.49 0.49 0 0 0-0.63-0.25l-0.88 0.37 1.49 3.5z m2.21 5.21l0.87-0.38a0.49 0.49 0 0 1 0.64 0.26l1.11 2.61A0.48 0.48 0 0 1 9.82 15.92l-0.88 0.37L7.46 12.79z m-2.16-2.16c-1.02-2.38-0.66-2.79-0.4-2.9l0.07-0.03L3.48 4.2l-0.09 0.03C2.94 4.43 1.06 6.19 3.31 11.48 5.55 16.76 8.12 16.64 8.58 16.45l0.09-0.04L7.18 12.9l-0.07 0.03c-0.26 0.11-0.78 0.08-1.81-2.3zM6.15 4.25a1.09 1.09 0 0 1 0.5 0.54 1.09 1.09 0 0 1 0.05 0.75l0.66 0.19c0.12-0.4 0.09-0.83-0.07-1.21a1.8 1.8 0 0 0-0.82-0.89l-0.32 0.62zM8.95 6.44a3.47 3.47 0 0 0-0.07-2.51c-0.34-0.8-0.96-1.44-1.75-1.8l-0.3 0.62a2.78 2.78 0 0 1 1.41 1.45c0.27 0.65 0.29 1.37 0.05 2.03L8.95 6.44z m-0.61-0.11z m0 0z m0 0z"></path><path d="M10.55 7.15a5.14 5.14 0 0 0-0.09-3.82 5.15 5.15 0 0 0-2.67-2.71l-0.29 0.64A4.46 4.46 0 0 1 9.82 3.61c0.45 1.06 0.48 2.23 0.07 3.31l0.66 0.23z"></path><path d="M12.14 7.86c0.63-1.66 0.6-3.48-0.1-5.12-0.69-1.63-1.97-2.92-3.59-3.62l-0.28 0.64A6.14 6.14 0 0 1 11.4 3.01c0.63 1.47 0.66 3.11 0.09 4.6l0.65 0.25z"></path></g><g id="SvgjsG13358"><use xlink:href="#SvgjsG13354" transform="translate(0, 0) scale(1.8)" fill="rgba(142, 157, 241, 1)"></use><use xlink:href="#SvgjsG13355" transform="translate(0, 115.2) scale(1.8)" fill="rgba(142, 157, 241, 1)"></use><use xlink:href="#SvgjsG13356" transform="translate(0, 230.4) scale(1.8)" fill="rgba(142, 157, 241, 1)"></use><use xlink:href="#SvgjsG13357" transform="translate(0, 345.6) scale(1.8)" fill="rgba(142, 157, 241, 1)"></use><use xlink:href="#SvgjsG13354" transform="translate(0, 460.8) scale(1.8)" fill="rgba(142, 157, 241, 1)"></use><use xlink:href="#SvgjsG13355" transform="translate(0, 576) scale(1.8)" fill="rgba(142, 157, 241, 1)"></use><use xlink:href="#SvgjsG13356" transform="translate(0, 691.2) scale(1.8)" fill="rgba(142, 157, 241, 1)"></use><use xlink:href="#SvgjsG13357" transform="translate(0, 806.4) scale(1.8)" fill="rgba(142, 157, 241, 1)"></use><use xlink:href="#SvgjsG13354" transform="translate(0, 921.6) scale(1.8)" fill="rgba(142, 157, 241, 1)"></use><use xlink:href="#SvgjsG13355" transform="translate(115.2, 0) scale(1.8)" fill="rgba(142, 157, 241, 1)"></use><use xlink:href="#SvgjsG13356" transform="translate(115.2, 115.2) scale(1.8)" fill="rgba(142, 157, 241, 1)"></use><use xlink:href="#SvgjsG13357" transform="translate(115.2, 230.4) scale(1.8)" fill="rgba(142, 157, 241, 1)"></use><use xlink:href="#SvgjsG13354" transform="translate(115.2, 345.6) scale(1.8)" fill="rgba(142, 157, 241, 1)"></use><use xlink:href="#SvgjsG13355" transform="translate(115.2, 460.8) scale(1.8)" fill="rgba(142, 157, 241, 1)"></use><use xlink:href="#SvgjsG13356" transform="translate(115.2, 576) scale(1.8)" fill="rgba(142, 157, 241, 1)"></use><use xlink:href="#SvgjsG13357" transform="translate(115.2, 691.2) scale(1.8)" fill="rgba(142, 157, 241, 1)"></use><use xlink:href="#SvgjsG13354" transform="translate(115.2, 806.4) scale(1.8)" fill="rgba(142, 157, 241, 1)"></use><use xlink:href="#SvgjsG13355" transform="translate(115.2, 921.6) scale(1.8)" fill="rgba(142, 157, 241, 1)"></use><use xlink:href="#SvgjsG13356" transform="translate(230.4, 0) scale(1.8)" fill="rgba(142, 157, 241, 1)"></use><use xlink:href="#SvgjsG13357" transform="translate(230.4, 115.2) scale(1.8)" fill="rgba(142, 157, 241, 1)"></use><use xlink:href="#SvgjsG13354" transform="translate(230.4, 230.4) scale(1.8)" fill="rgba(142, 157, 241, 1)"></use><use xlink:href="#SvgjsG13355" transform="translate(230.4, 345.6) scale(1.8)" fill="rgba(142, 157, 241, 1)"></use><use xlink:href="#SvgjsG13356" transform="translate(230.4, 460.8) scale(1.8)" fill="rgba(142, 157, 241, 1)"></use><use xlink:href="#SvgjsG13357" transform="translate(230.4, 576) scale(1.8)" fill="rgba(142, 157, 241, 1)"></use><use xlink:href="#SvgjsG13354" transform="translate(230.4, 691.2) scale(1.8)" fill="rgba(142, 157, 241, 1)"></use><use xlink:href="#SvgjsG13355" transform="translate(230.4, 806.4) scale(1.8)" fill="rgba(142, 157, 241, 1)"></use><use xlink:href="#SvgjsG13356" transform="translate(230.4, 921.6) scale(1.8)" fill="rgba(142, 157, 241, 1)"></use><use xlink:href="#SvgjsG13357" transform="translate(345.6, 0) scale(1.8)" fill="rgba(142, 157, 241, 1)"></use><use xlink:href="#SvgjsG13354" transform="translate(345.6, 115.2) scale(1.8)" fill="rgba(142, 157, 241, 1)"></use><use xlink:href="#SvgjsG13355" transform="translate(345.6, 230.4) scale(1.8)" fill="rgba(142, 157, 241, 1)"></use><use xlink:href="#SvgjsG13356" transform="translate(345.6, 345.6) scale(1.8)" fill="rgba(142, 157, 241, 1)"></use><use xlink:href="#SvgjsG13357" transform="translate(345.6, 460.8) scale(1.8)" fill="rgba(142, 157, 241, 1)"></use><use xlink:href="#SvgjsG13354" transform="translate(345.6, 576) scale(1.8)" fill="rgba(142, 157, 241, 1)"></use><use xlink:href="#SvgjsG13355" transform="translate(345.6, 691.2) scale(1.8)" fill="rgba(142, 157, 241, 1)"></use><use xlink:href="#SvgjsG13356" transform="translate(345.6, 806.4) scale(1.8)" fill="rgba(142, 157, 241, 1)"></use><use xlink:href="#SvgjsG13357" transform="translate(345.6, 921.6) scale(1.8)" fill="rgba(142, 157, 241, 1)"></use><use xlink:href="#SvgjsG13354" transform="translate(460.8, 0) scale(1.8)" fill="rgba(142, 157, 241, 1)"></use><use xlink:href="#SvgjsG13355" transform="translate(460.8, 115.2) scale(1.8)" fill="rgba(142, 157, 241, 1)"></use><use xlink:href="#SvgjsG13356" transform="translate(460.8, 230.4) scale(1.8)" fill="rgba(142, 157, 241, 1)"></use><use xlink:href="#SvgjsG13357" transform="translate(460.8, 345.6) scale(1.8)" fill="rgba(142, 157, 241, 1)"></use><use xlink:href="#SvgjsG13354" transform="translate(460.8, 460.8) scale(1.8)" fill="rgba(142, 157, 241, 1)"></use><use xlink:href="#SvgjsG13355" transform="translate(460.8, 576) scale(1.8)" fill="rgba(142, 157, 241, 1)"></use><use xlink:href="#SvgjsG13356" transform="translate(460.8, 691.2) scale(1.8)" fill="rgba(142, 157, 241, 1)"></use><use xlink:href="#SvgjsG13357" transform="translate(460.8, 806.4) scale(1.8)" fill="rgba(142, 157, 241, 1)"></use><use xlink:href="#SvgjsG13354" transform="translate(460.8, 921.6) scale(1.8)" fill="rgba(142, 157, 241, 1)"></use><use xlink:href="#SvgjsG13355" transform="translate(576, 0) scale(1.8)" fill="rgba(142, 157, 241, 1)"></use><use xlink:href="#SvgjsG13356" transform="translate(576, 115.2) scale(1.8)" fill="rgba(142, 157, 241, 1)"></use><use xlink:href="#SvgjsG13357" transform="translate(576, 230.4) scale(1.8)" fill="rgba(142, 157, 241, 1)"></use><use xlink:href="#SvgjsG13354" transform="translate(576, 345.6) scale(1.8)" fill="rgba(142, 157, 241, 1)"></use><use xlink:href="#SvgjsG13355" transform="translate(576, 460.8) scale(1.8)" fill="rgba(142, 157, 241, 1)"></use><use xlink:href="#SvgjsG13356" transform="translate(576, 576) scale(1.8)" fill="rgba(142, 157, 241, 1)"></use><use xlink:href="#SvgjsG13357" transform="translate(576, 691.2) scale(1.8)" fill="rgba(142, 157, 241, 1)"></use><use xlink:href="#SvgjsG13354" transform="translate(576, 806.4) scale(1.8)" fill="rgba(142, 157, 241, 1)"></use><use xlink:href="#SvgjsG13355" transform="translate(576, 921.6) scale(1.8)" fill="rgba(142, 157, 241, 1)"></use><use xlink:href="#SvgjsG13356" transform="translate(691.2, 0) scale(1.8)" fill="rgba(142, 157, 241, 1)"></use><use xlink:href="#SvgjsG13357" transform="translate(691.2, 115.2) scale(1.8)" fill="rgba(142, 157, 241, 1)"></use><use xlink:href="#SvgjsG13354" transform="translate(691.2, 230.4) scale(1.8)" fill="rgba(142, 157, 241, 1)"></use><use xlink:href="#SvgjsG13355" transform="translate(691.2, 345.6) scale(1.8)" fill="rgba(142, 157, 241, 1)"></use><use xlink:href="#SvgjsG13356" transform="translate(691.2, 460.8) scale(1.8)" fill="rgba(142, 157, 241, 1)"></use><use xlink:href="#SvgjsG13357" transform="translate(691.2, 576) scale(1.8)" fill="rgba(142, 157, 241, 1)"></use><use xlink:href="#SvgjsG13354" transform="translate(691.2, 691.2) scale(1.8)" fill="rgba(142, 157, 241, 1)"></use><use xlink:href="#SvgjsG13355" transform="translate(691.2, 806.4) scale(1.8)" fill="rgba(142, 157, 241, 1)"></use><use xlink:href="#SvgjsG13356" transform="translate(691.2, 921.6) scale(1.8)" fill="rgba(142, 157, 241, 1)"></use><use xlink:href="#SvgjsG13357" transform="translate(806.4, 0) scale(1.8)" fill="rgba(142, 157, 241, 1)"></use><use xlink:href="#SvgjsG13354" transform="translate(806.4, 115.2) scale(1.8)" fill="rgba(142, 157, 241, 1)"></use><use xlink:href="#SvgjsG13355" transform="translate(806.4, 230.4) scale(1.8)" fill="rgba(142, 157, 241, 1)"></use><use xlink:href="#SvgjsG13356" transform="translate(806.4, 345.6) scale(1.8)" fill="rgba(142, 157, 241, 1)"></use><use xlink:href="#SvgjsG13357" transform="translate(806.4, 460.8) scale(1.8)" fill="rgba(142, 157, 241, 1)"></use><use xlink:href="#SvgjsG13354" transform="translate(806.4, 576) scale(1.8)" fill="rgba(142, 157, 241, 1)"></use><use xlink:href="#SvgjsG13355" transform="translate(806.4, 691.2) scale(1.8)" fill="rgba(142, 157, 241, 1)"></use><use xlink:href="#SvgjsG13356" transform="translate(806.4, 806.4) scale(1.8)" fill="rgba(142, 157, 241, 1)"></use><use xlink:href="#SvgjsG13357" transform="translate(806.4, 921.6) scale(1.8)" fill="rgba(142, 157, 241, 1)"></use><use xlink:href="#SvgjsG13354" transform="translate(921.6, 0) scale(1.8)" fill="rgba(142, 157, 241, 1)"></use><use xlink:href="#SvgjsG13355" transform="translate(921.6, 115.2) scale(1.8)" fill="rgba(142, 157, 241, 1)"></use><use xlink:href="#SvgjsG13356" transform="translate(921.6, 230.4) scale(1.8)" fill="rgba(142, 157, 241, 1)"></use><use xlink:href="#SvgjsG13357" transform="translate(921.6, 345.6) scale(1.8)" fill="rgba(142, 157, 241, 1)"></use><use xlink:href="#SvgjsG13354" transform="translate(921.6, 460.8) scale(1.8)" fill="rgba(142, 157, 241, 1)"></use><use xlink:href="#SvgjsG13355" transform="translate(921.6, 576) scale(1.8)" fill="rgba(142, 157, 241, 1)"></use><use xlink:href="#SvgjsG13356" transform="translate(921.6, 691.2) scale(1.8)" fill="rgba(142, 157, 241, 1)"></use><use xlink:href="#SvgjsG13357" transform="translate(921.6, 806.4) scale(1.8)" fill="rgba(142, 157, 241, 1)"></use><use xlink:href="#SvgjsG13354" transform="translate(921.6, 921.6) scale(1.8)" fill="rgba(142, 157, 241, 1)"></use><use xlink:href="#SvgjsG13355" transform="translate(1036.8, 0) scale(1.8)" fill="rgba(142, 157, 241, 1)"></use><use xlink:href="#SvgjsG13356" transform="translate(1036.8, 115.2) scale(1.8)" fill="rgba(142, 157, 241, 1)"></use><use xlink:href="#SvgjsG13357" transform="translate(1036.8, 230.4) scale(1.8)" fill="rgba(142, 157, 241, 1)"></use><use xlink:href="#SvgjsG13354" transform="translate(1036.8, 345.6) scale(1.8)" fill="rgba(142, 157, 241, 1)"></use><use xlink:href="#SvgjsG13355" transform="translate(1036.8, 460.8) scale(1.8)" fill="rgba(142, 157, 241, 1)"></use><use xlink:href="#SvgjsG13356" transform="translate(1036.8, 576) scale(1.8)" fill="rgba(142, 157, 241, 1)"></use><use xlink:href="#SvgjsG13357" transform="translate(1036.8, 691.2) scale(1.8)" fill="rgba(142, 157, 241, 1)"></use><use xlink:href="#SvgjsG13354" transform="translate(1036.8, 806.4) scale(1.8)" fill="rgba(142, 157, 241, 1)"></use><use xlink:href="#SvgjsG13355" transform="translate(1036.8, 921.6) scale(1.8)" fill="rgba(142, 157, 241, 1)"></use></g></defs></svg>